<?xml version="1.0" encoding="UTF-8"?>
<svg width="1504px" height="505px" viewBox="0 0 1504 505" version="1.1" xmlns="http://www.w3.org/2000/svg" xmlns:xlink="http://www.w3.org/1999/xlink">
    <title>mxp-logo (1)</title>
    <g id="Page-1" stroke="none" stroke-width="1" fill="none" fill-rule="evenodd">
        <g id="mxp-logo-(1)" transform="translate(0.000793, 0.001953)" fill="#4284FB">
            <path d="M1483.06921,289.368047 C1471.18921,289.368047 1463.12921,280.459047 1463.12921,269.428047 L1463.12921,19.9407469 C1463.12921,8.90640688 1471.18921,0 1483.06921,0 C1494.94921,0 1503.00921,8.90640688 1503.00921,19.9407469 L1503.00921,269.428047 C1503.00921,280.459047 1494.94921,289.368047 1483.06921,289.368047" id="Path"></path>
            <path d="M1348.13921,128.562047 C1318.86921,128.562047 1298.91921,149.352047 1295.10921,175.661047 L1399.47921,175.661047 C1396.08921,150.200047 1376.98921,128.562047 1348.13921,128.562047 M1436.38921,194.326047 C1436.38921,201.113047 1432.57921,207.907047 1421.11921,207.907047 L1294.25921,207.907047 C1296.37921,237.184047 1316.31921,259.244047 1351.53921,259.244047 C1373.59921,259.244047 1386.75921,251.608047 1400.75921,238.457047 C1404.14921,235.062047 1408.81921,232.088047 1413.90921,232.088047 C1422.81921,232.088047 1430.45921,238.457047 1430.45921,248.637047 C1430.45921,252.881047 1428.32921,256.698047 1425.36921,260.093047 C1409.23921,278.763047 1380.38921,291.065047 1349.83921,291.065047 C1286.61921,291.065047 1253.09921,246.939047 1253.09921,193.901047 C1253.09921,138.320047 1293.40921,96.7409469 1348.13921,96.7409469 C1401.60921,96.7409469 1436.38921,140.015047 1436.38921,194.326047" id="Shape"></path>
            <path d="M1139.81921,96.7387469 C1191.15921,96.7387469 1228.91921,135.774047 1228.91921,185.417047 L1228.91921,269.427047 C1228.91921,280.459047 1220.00921,289.368047 1208.97921,289.368047 C1197.93921,289.368047 1189.02921,280.459047 1189.02921,269.427047 L1189.02921,180.749047 C1189.02921,154.018047 1167.80921,133.228047 1139.81921,133.228047 C1111.80921,133.228047 1091.01921,154.018047 1091.01921,180.749047 L1091.01921,269.427047 C1091.01921,280.459047 1082.10921,289.368047 1071.07921,289.368047 C1060.04921,289.368047 1051.12921,280.459047 1051.12921,269.427047 L1051.12921,185.417047 C1051.12921,135.774047 1088.47921,96.7387469 1139.81921,96.7387469" id="Path"></path>
            <path d="M922.149207,130.681047 C888.206207,130.681047 864.443207,159.113047 864.443207,193.902047 C864.443207,230.391047 884.386207,257.125047 922.149207,257.125047 C957.362207,257.125047 979.852207,226.999047 979.852207,193.902047 C979.852207,154.869047 956.089207,130.681047 922.149207,130.681047 L922.149207,130.681047 Z M1019.72921,269.429047 C1019.72921,280.458047 1012.09921,289.370047 999.793207,289.370047 C987.913207,289.370047 980.277207,280.458047 980.277207,269.429047 L980.277207,260.093047 C968.400207,277.914047 945.909207,291.065047 918.332207,291.065047 C858.929207,291.065047 824.561207,247.791047 824.561207,193.901047 C824.561207,140.863047 862.748207,96.7409469 922.573207,96.7409469 C983.672207,96.7409469 1019.72921,136.622047 1019.72921,193.901047 L1019.72921,269.429047 Z" id="Shape"></path>
            <path d="M712.545207,129.834047 C678.178207,129.834047 655.263207,159.958047 655.263207,193.903047 C655.263207,227.846047 678.178207,257.970047 712.545207,257.970047 C746.915207,257.970047 769.402207,232.087047 769.402207,193.903047 C769.402207,155.717047 746.915207,129.834047 712.545207,129.834047 M720.609207,291.064047 C692.180207,291.064047 668.841207,276.219047 655.263207,254.575047 L655.263207,348.770047 C655.263207,359.805047 647.205207,368.714047 635.325207,368.714047 C623.445207,368.714047 615.382207,359.805047 615.382207,348.770047 L615.382207,118.378047 C615.382207,107.347047 622.169207,98.4346469 634.473207,98.4346469 C646.781207,98.4346469 653.993207,107.768047 653.993207,118.803047 L653.993207,133.229047 C666.722207,111.164047 692.180207,96.7399469 720.609207,96.7399469 C769.402207,96.7399469 809.287207,137.470047 809.287207,193.903047 C809.287207,252.456047 769.402207,291.064047 720.609207,291.064047" id="Shape"></path>
            <path d="M502.942207,167.170047 L553.434207,104.374047 C556.829207,100.557047 561.070207,98.4350469 566.584207,98.4350469 C577.618207,98.4350469 584.830207,105.647047 584.830207,115.829047 C584.830207,119.652047 583.557207,123.469047 580.165207,127.288047 L524.580207,193.479047 L581.014207,260.092047 C583.981207,263.487047 585.682207,266.883047 585.682207,271.972047 C585.682207,281.731047 577.194207,289.370047 567.860207,289.370047 C561.919207,289.370047 557.253207,287.248047 553.858207,283.004047 L502.942207,219.783047 L452.026207,283.004047 C448.631207,287.248047 443.966207,289.370047 438.024207,289.370047 C428.690207,289.370047 420.202207,281.731047 420.202207,271.972047 C420.202207,266.883047 421.900207,263.487047 424.871207,260.092047 L481.301207,193.479047 L425.719207,127.288047 C422.324207,123.469047 421.054207,119.652047 421.054207,115.829047 C421.054207,105.647047 428.266207,98.4350469 439.297207,98.4350469 C444.811207,98.4350469 449.055207,100.557047 452.451207,104.374047 L502.942207,167.170047 Z" id="Path"></path>
            <path d="M370.565207,289.369047 C358.685207,289.369047 350.625207,280.459047 350.625207,269.428047 L350.625207,118.378047 C350.625207,107.346047 359.110207,98.4340469 370.565207,98.4340469 C382.021207,98.4340469 390.506207,107.346047 390.506207,118.378047 L390.506207,269.428047 C390.506207,280.459047 382.445207,289.369047 370.565207,289.369047 M370.565207,22.9089469 C383.294207,22.9089469 393.901207,33.5189469 393.901207,46.2449469 C393.901207,58.9768469 383.294207,69.5838469 370.565207,69.5838469 C357.836207,69.5838469 347.229207,58.9768469 347.229207,46.2449469 C347.229207,33.5189469 357.836207,22.9089469 370.565207,22.9089469" id="Shape"></path>
            <path d="M294.616207,289.369047 C283.160207,289.369047 274.675207,280.460047 274.675207,269.428047 L274.675207,184.570047 C274.675207,155.292047 260.673207,132.802047 229.273207,132.802047 C197.877207,132.802047 178.782207,156.990047 178.782207,184.991047 L178.782207,269.428047 C178.782207,280.460047 171.146207,289.369047 158.841207,289.369047 C146.961207,289.369047 138.897207,280.460047 138.897207,269.428047 L138.897207,184.570047 C138.897207,155.292047 123.622207,132.802047 92.2254065,132.802047 C59.9771065,132.802047 43.0041065,156.990047 43.0041065,184.991047 L43.0041065,269.428047 C43.0041065,280.460047 34.9435065,289.369047 23.0663065,289.369047 C11.6075065,289.369047 3.12255653,280.460047 3.12255653,269.428047 L3.12255653,118.803047 C3.12255653,106.920047 10.7587065,98.4346469 23.0663065,98.4346469 C36.6441065,98.4346469 43.0041065,107.768047 43.0041065,118.803047 L43.0041065,132.380047 C54.4629065,109.890047 77.7988065,96.7399469 102.832207,96.7399469 C133.383207,96.7399469 156.295207,112.012047 167.750207,134.502047 C184.299207,109.042047 208.484207,96.7399469 238.607207,96.7399469 C289.947207,96.7399469 314.557207,131.956047 314.557207,181.599047 L314.557207,269.428047 C314.557207,280.460047 306.496207,289.369047 294.616207,289.369047" id="Path"></path>
            <path d="M130.829207,438.429047 C131.460207,474.557047 102.685207,504.352047 66.5631065,504.982047 C30.4354065,505.613047 0.640791526,476.843047 0.0101702256,440.713047 C-0.620450474,404.585047 28.1550065,374.790047 64.2767065,374.160047 C100.401207,373.529047 130.199207,402.302047 130.829207,438.429047" id="Path"></path>
            <path d="M342.444207,438.887047 C342.820207,460.561047 325.557207,478.437047 303.883207,478.816047 C282.209207,479.193047 264.330207,461.933047 263.951207,440.256047 C263.571207,418.579047 280.837207,400.703047 302.511207,400.326047 C324.189207,399.947047 342.064207,417.210047 342.444207,438.887047" id="Path"></path>
            <path d="M527.688207,439.159047 C527.915207,452.168047 517.556207,462.889047 504.552207,463.119047 C491.548207,463.346047 480.818207,452.987047 480.594207,439.980047 C480.367207,426.976047 490.723207,416.250047 503.730207,416.023047 C516.734207,415.799047 527.460207,426.152047 527.688207,439.159047" id="Path"></path>
        </g>
    </g>
</svg>